<svg width="6" height="9" viewBox="0 0 6 9" fill="none" xmlns="http://www.w3.org/2000/svg">
<path d="M2.69988 0.671494C2.77009 0.671471 2.83809 0.694903 2.89203 0.737707C2.94597 0.780512 2.98244 0.839978 2.99508 0.905749L2.99988 0.95717V2.67123C2.99995 3.00052 2.88054 3.31971 2.66187 3.5748C2.4432 3.82988 2.13869 4.00519 1.79988 4.07105V8.38476C1.80002 8.45615 1.77208 8.525 1.72157 8.57776C1.67107 8.63051 1.60165 8.66335 1.52699 8.6698C1.45232 8.67625 1.37783 8.65585 1.31818 8.61261C1.25853 8.56937 1.21803 8.50643 1.20468 8.43619L1.19988 8.38476V4.07105C0.878377 4.00843 0.587293 3.84719 0.371208 3.61201C0.155123 3.37683 0.0259521 3.08069 0.00347846 2.76893L-0.000121561 2.67123V0.95717C-0.000259569 0.885782 0.0276759 0.816932 0.0781835 0.764177C0.128691 0.711422 0.19811 0.678586 0.272771 0.672136C0.347432 0.665686 0.421924 0.686088 0.481577 0.729326C0.541231 0.772563 0.581722 0.835502 0.595078 0.905749L0.599878 0.95717V2.67123C0.599781 2.84854 0.657435 3.02151 0.764895 3.1663C0.872355 3.3111 1.02433 3.42059 1.19988 3.4797V0.95717C1.19974 0.885782 1.22768 0.816932 1.27818 0.764177C1.32869 0.711422 1.39811 0.678586 1.47277 0.672136C1.54743 0.665686 1.62192 0.686088 1.68158 0.729326C1.74123 0.772563 1.78172 0.835502 1.79508 0.905749L1.79988 0.95717V3.47912C2.12268 3.37057 2.36088 3.09175 2.39568 2.75636L2.39988 2.67123V0.95717C2.39988 0.881404 2.43148 0.808741 2.48775 0.755166C2.54401 0.701592 2.62031 0.671494 2.69988 0.671494ZM5.69988 0.671494C5.77009 0.671471 5.83809 0.694903 5.89203 0.737707C5.94597 0.780512 5.98244 0.839978 5.99508 0.905749L5.99988 0.95717V8.38476C6.00002 8.45615 5.97208 8.525 5.92157 8.57776C5.87106 8.63051 5.80165 8.66335 5.72698 8.6698C5.65232 8.67625 5.57783 8.65585 5.51818 8.61261C5.45853 8.56937 5.41803 8.50643 5.40468 8.43619L5.39988 8.38476V5.24232H4.49988C4.42966 5.24234 4.36166 5.21891 4.30772 5.17611C4.25378 5.1333 4.21732 5.07384 4.20468 5.00807L4.19988 4.95664V2.09988C4.19988 1.72105 4.35791 1.35773 4.63922 1.08986C4.92052 0.821984 5.30205 0.671494 5.69988 0.671494ZM5.39988 4.67097V1.29141C5.07708 1.39997 4.83888 1.67879 4.80408 2.01475L4.79988 2.09988V4.67097H5.39988V1.29141V4.67097Z" fill="white"/>
</svg>
