<svg width="40" height="40" viewBox="0 0 40 40" fill="none" xmlns="http://www.w3.org/2000/svg">
<path d="M28.3658 1.46661C29.3058 0.527493 30.58 0 31.9085 0C33.237 0 34.5112 0.527493 35.4512 1.46661L38.5325 4.549C38.9978 5.01398 39.3668 5.56611 39.6186 6.17385C39.8704 6.78158 40 7.43299 40 8.09085C40 8.74872 39.8704 9.40013 39.6186 10.0079C39.3668 10.6156 38.9978 11.1677 38.5325 11.6327L34.7468 15.4198L24.5842 5.25366L28.3658 1.46661ZM32.9631 17.1876L14.7471 35.4182C13.9333 36.233 12.9274 36.8297 11.8223 37.153L2.41359 39.9222C2.08502 40.0232 1.73411 40.0259 1.40403 39.93C1.07395 39.8341 0.779097 39.6438 0.555735 39.3824C0.31411 39.1599 0.141128 38.8729 0.0571916 38.5553C-0.0267452 38.2377 -0.0181363 37.9027 0.0820029 37.5898L2.85436 28.182C3.17926 27.0772 3.77547 26.0714 4.58863 25.2562L22.817 7.0215L32.9631 17.1876Z" fill="#0096D6"/>
</svg>
