<svg width="5" height="8" viewBox="0 0 5 8" fill="none" xmlns="http://www.w3.org/2000/svg">
<path d="M2.04714 3.25269H2.95298C3.08886 3.25269 3.17944 3.1621 3.17944 3.02623V0.76161C3.17944 0.376626 2.88504 0.0822258 2.50006 0.0822258C2.11507 0.0822258 1.82067 0.376626 1.82067 0.76161V3.02623C1.82067 3.1621 1.91126 3.25269 2.04714 3.25269Z" fill="white"/>
<path d="M0.529662 4.61146L0.597601 4.24912C0.688186 3.93207 0.95994 3.70561 1.27699 3.70561H3.72277C4.03982 3.70561 4.31157 3.93207 4.37951 4.24912L4.47009 4.61146H0.529662Z" fill="white"/>
<path d="M4.56084 5.06438L4.99112 7.05725C5.01376 7.12518 4.99112 7.19312 4.94582 7.23841C4.90053 7.30635 4.83259 7.329 4.76465 7.329H3.85881V6.19669C3.85881 6.06082 3.76822 5.97023 3.63235 5.97023C3.49647 5.97023 3.40589 6.06082 3.40589 6.19669V7.329H1.59419V6.64961C1.59419 6.51374 1.50361 6.42315 1.36773 6.42315C1.23185 6.42315 1.14127 6.51374 1.14127 6.64961V7.329H0.235424C0.167486 7.329 0.0995473 7.30635 0.054255 7.23841C0.00896268 7.19312 -0.0136836 7.12518 0.00896251 7.05725L0.439239 5.06438H4.56084Z" fill="white"/>
</svg>
