<svg width="22" height="21" viewBox="0 0 22 21" fill="none" xmlns="http://www.w3.org/2000/svg">
<path d="M21 8.89209V1.49209C21 1.33296 20.9368 1.18035 20.8243 1.06783C20.7117 0.955304 20.5591 0.89209 20.4 0.89209H1.6C1.44087 0.89209 1.28826 0.955304 1.17574 1.06783C1.06321 1.18035 1 1.33296 1 1.49209V8.89209M21 8.89209H1M21 8.89209L20.21 11.4761C20.0849 11.8857 19.8317 12.2444 19.4875 12.4993C19.1433 12.7542 18.7263 12.8919 18.298 12.8921H17L21 8.89209ZM1 8.89209L1.79 11.4761C1.91507 11.8857 2.16834 12.2444 2.51254 12.4993C2.85674 12.7542 3.27369 12.8919 3.702 12.8921H5L1 8.89209ZM17 4.89209H18M11 12.3921V19.3921M8.5 12.3921C8.5 12.3921 8.5 19.3921 5 19.3921L8.5 12.3921ZM13.5 12.3921C13.5 12.3921 13.5 19.3921 17 19.3921L13.5 12.3921Z" stroke="#0096D6" stroke-width="1.5" stroke-linecap="round" stroke-linejoin="round"/>
</svg>
