<svg width="17" height="16" viewBox="0 0 17 16" fill="none" xmlns="http://www.w3.org/2000/svg">
<path d="M12.976 1.035H3.76702C2.95281 1.035 2.17194 1.35845 1.5962 1.93419C1.02047 2.50992 0.697021 3.29079 0.697021 4.105V11.78C0.697021 12.5942 1.02047 13.3751 1.5962 13.9508C2.17194 14.5266 2.95281 14.85 3.76702 14.85H12.977C13.7912 14.85 14.5721 14.5266 15.1478 13.9508C15.7236 13.3751 16.047 12.5942 16.047 11.78V4.105C16.047 3.70176 15.9676 3.30247 15.8132 2.92993C15.6589 2.5574 15.4327 2.21892 15.1475 1.93383C14.8623 1.64874 14.5238 1.42263 14.1512 1.26841C13.7786 1.11418 13.3793 1.03487 12.976 1.035V1.035Z" stroke="#262626" stroke-linecap="round" stroke-linejoin="round"/>
<path d="M0.697021 5.64001H16.046H0.697021Z" stroke="#262626" stroke-linecap="round" stroke-linejoin="round"/>
</svg>
