<svg width="18" height="20" viewBox="0 0 18 20" fill="none" xmlns="http://www.w3.org/2000/svg">
<path d="M6.65569 3.02683C7.49153 3.02683 8.1691 2.34925 8.1691 1.51342C8.1691 0.677579 7.49153 0 6.65569 0C5.81985 0 5.14227 0.677579 5.14227 1.51342C5.14227 2.34925 5.81985 3.02683 6.65569 3.02683Z" fill="#0096D6"/>
<path d="M17.2315 14.5834L15.103 15.1155L14.2515 11.1423C14.1995 10.9044 14.0679 10.6913 13.8785 10.5382C13.6891 10.3851 13.4532 10.3011 13.2097 10.3001H9.27141L8.98451 7.81383H13.852V6.39312H8.8206L8.63706 4.80254C8.62102 4.66353 8.57776 4.52904 8.50975 4.40676C8.44173 4.28447 8.3503 4.17677 8.24066 4.08982C8.13103 4.00287 8.00534 3.93836 7.87078 3.89999C7.73621 3.86161 7.59541 3.85011 7.4564 3.86615L5.69223 4.06972L6.57525 11.7208H12.9227L14.0219 16.8503L17.5762 15.9617L17.2315 14.5834Z" fill="#0096D6"/>
<path d="M6.74839 18.4692C5.51317 18.469 4.3164 18.0396 3.36281 17.2545C2.40921 16.4694 1.75807 15.3773 1.52076 14.1651C1.28345 12.9529 1.47473 11.6959 2.06187 10.6091C2.64901 9.52234 3.59553 8.67338 4.7395 8.20743L4.57173 6.75342C1.91543 7.66103 0 10.1817 0 13.1415C0 16.8626 3.02732 19.8899 6.74839 19.8899C7.90969 19.8893 9.05121 19.5892 10.0626 19.0185C11.074 18.4478 11.9211 17.6259 12.522 16.6321L12.0761 14.5622C11.3657 16.6933 9.35008 18.4692 6.74839 18.4692Z" fill="#0096D6"/>
</svg>
