<svg width="20" height="20" viewBox="0 0 20 20" fill="none" xmlns="http://www.w3.org/2000/svg">
<path d="M15.4513 4.6308C15.2054 4.63429 14.9615 4.58738 14.7345 4.49296C14.5074 4.39854 14.3022 4.25861 14.1313 4.0818C13.9548 3.91097 13.8151 3.70582 13.7209 3.47898C13.6266 3.25214 13.5798 3.00841 13.5833 2.7628C13.5793 2.51675 13.6257 2.2725 13.7198 2.04511C13.8139 1.81773 13.9536 1.61206 14.1303 1.4408C14.3034 1.26685 14.5092 1.12882 14.7358 1.03464C14.9624 0.940453 15.2054 0.891968 15.4508 0.891968C15.6962 0.891968 15.9392 0.940453 16.1658 1.03464C16.3924 1.12882 16.5982 1.26685 16.7713 1.4408C16.9481 1.61166 17.088 1.81693 17.1825 2.04395C17.2769 2.27098 17.3238 2.51494 17.3203 2.7608C17.3237 3.00648 17.2767 3.25025 17.1823 3.4771C17.0878 3.70394 16.948 3.90905 16.7713 4.0798C16.6006 4.25697 16.3954 4.39727 16.1684 4.49204C15.9413 4.58681 15.6973 4.63403 15.4513 4.6308ZM14.5173 19.5818V12.1058C14.5253 11.5105 14.3592 10.9259 14.0393 10.4238C13.7336 9.93865 13.3119 9.53724 12.8123 9.2558L13.6303 6.8498C13.7484 6.46955 13.9915 6.14039 14.3203 5.9158C14.6538 5.68749 15.0486 5.56533 15.4528 5.56533C15.857 5.56533 16.2517 5.68749 16.5853 5.9158C16.9141 6.14039 17.1572 6.46955 17.2753 6.8498L19.2373 12.7368C19.2927 12.8775 19.31 13.0304 19.2875 13.18C19.2651 13.3295 19.2036 13.4705 19.1093 13.5888C19.0237 13.7102 18.9097 13.8089 18.7772 13.8762C18.6448 13.9434 18.4978 13.9773 18.3493 13.9748H17.3193V18.6468C17.3213 18.77 17.2985 18.8924 17.2523 19.0066C17.2061 19.1208 17.1374 19.2246 17.0502 19.3118C16.9631 19.3989 16.8593 19.4676 16.7451 19.5138C16.6309 19.5601 16.5085 19.5828 16.3853 19.5808L14.5173 19.5818ZM10.3173 9.7708C9.94599 9.7708 9.58989 9.6233 9.32734 9.36075C9.06479 9.09819 8.91729 8.7421 8.91729 8.3708C8.91766 8.09489 8.99954 7.82525 9.15265 7.59573C9.30575 7.36621 9.52327 7.18704 9.77787 7.08074C10.0325 6.97443 10.3128 6.94572 10.5837 6.99822C10.8545 7.05071 11.1038 7.18207 11.3003 7.3758C11.5624 7.63959 11.7096 7.99639 11.7096 8.3683C11.7096 8.7402 11.5624 9.097 11.3003 9.3608C11.1721 9.49283 11.0182 9.59723 10.8481 9.66757C10.678 9.73791 10.4953 9.7727 10.3113 9.7698L10.3173 9.7708ZM3.77029 4.6308C3.52461 4.63416 3.28084 4.58718 3.05399 4.49276C2.82715 4.39835 2.62204 4.25848 2.45129 4.0818C2.27412 3.91111 2.13381 3.70591 2.03905 3.47888C1.94428 3.25184 1.89705 3.00779 1.90029 2.7618C1.89692 2.51563 1.94407 2.27139 2.03885 2.04417C2.13362 1.81696 2.27399 1.6116 2.45129 1.4408C2.62212 1.26429 2.82727 1.12461 3.05411 1.03037C3.28095 0.936124 3.52468 0.889306 3.77029 0.892796C4.01607 0.889168 4.25999 0.93592 4.48701 1.03017C4.71404 1.12442 4.91935 1.26416 5.09029 1.4408C5.26711 1.61166 5.40704 1.81693 5.50146 2.04395C5.59588 2.27098 5.64279 2.51494 5.63929 2.7608C5.64279 3.00665 5.59588 3.25061 5.50146 3.47764C5.40704 3.70466 5.26711 3.90994 5.09029 4.0808C4.91952 4.25779 4.71428 4.39791 4.48725 4.4925C4.26023 4.5871 4.01622 4.63416 3.77029 4.6308ZM2.83629 19.5808C2.71308 19.5828 2.59072 19.5601 2.47648 19.5138C2.36225 19.4676 2.25847 19.3989 2.17134 19.3118C2.0842 19.2246 2.01548 19.1208 1.96926 19.0066C1.92304 18.8924 1.90026 18.77 1.90229 18.6468V13.0398H1.43429C1.31093 13.0429 1.18823 13.0207 1.07383 12.9744C0.959434 12.9281 0.855773 12.8588 0.769293 12.7708C0.681259 12.6843 0.611951 12.5807 0.565675 12.4663C0.519399 12.3519 0.497144 12.2292 0.500293 12.1058V7.4338C0.496795 7.18794 0.543704 6.94398 0.638126 6.71695C0.732548 6.48993 0.87248 6.28466 1.04929 6.1138C1.22012 5.93729 1.42527 5.79761 1.65211 5.70337C1.87895 5.60912 2.12268 5.56231 2.36829 5.5658H5.16829C5.6641 5.56606 6.13959 5.76279 6.49065 6.11291C6.8417 6.46303 7.03971 6.93799 7.04129 7.4338V12.1058C7.04346 12.229 7.02078 12.3515 6.97461 12.4658C6.92844 12.5801 6.85972 12.6839 6.77256 12.7711C6.68539 12.8582 6.58157 12.9269 6.46727 12.9731C6.35297 13.0193 6.23054 13.042 6.10729 13.0398H5.63929V18.6458C5.64146 18.769 5.61878 18.8915 5.57261 19.0058C5.52644 19.1201 5.45772 19.2239 5.37056 19.3111C5.28339 19.3982 5.17957 19.4669 5.06527 19.5131C4.95097 19.5593 4.82854 19.582 4.70529 19.5798L2.83629 19.5808ZM9.84429 19.5808C9.72108 19.5828 9.59872 19.5601 9.48448 19.5138C9.37025 19.4676 9.26647 19.3989 9.17934 19.3118C9.0922 19.2246 9.02348 19.1208 8.97726 19.0066C8.93104 18.8924 8.90826 18.77 8.91029 18.6468V15.8468C8.78708 15.8488 8.66472 15.8261 8.55048 15.7798C8.43625 15.7336 8.33247 15.6649 8.24534 15.5778C8.1582 15.4906 8.08948 15.3868 8.04326 15.2726C7.99704 15.1584 7.97427 15.036 7.97629 14.9128V12.1128C7.97629 11.7415 8.12379 11.3854 8.38634 11.1228C8.6489 10.8603 9.00499 10.7128 9.37629 10.7128H11.2453C11.4291 10.7128 11.6112 10.749 11.781 10.8194C11.9509 10.8897 12.1052 10.9928 12.2352 11.1228C12.3652 11.2528 12.4684 11.4072 12.5387 11.577C12.6091 11.7469 12.6453 11.9289 12.6453 12.1128V14.9128C12.6475 15.036 12.6248 15.1585 12.5786 15.2728C12.5324 15.3871 12.4637 15.4909 12.3766 15.5781C12.2894 15.6652 12.1856 15.7339 12.0713 15.7801C11.957 15.8263 11.8345 15.849 11.7113 15.8468V18.6468C11.7135 18.77 11.6908 18.8925 11.6446 19.0068C11.5984 19.1211 11.5297 19.2249 11.4426 19.3121C11.3554 19.3992 11.2516 19.4679 11.1373 19.5141C11.023 19.5603 10.9005 19.583 10.7773 19.5808H9.84429Z" fill="#0096D6"/>
</svg>
