<svg width="14" height="16" viewBox="0 0 14 16" fill="none" xmlns="http://www.w3.org/2000/svg">
<path fill-rule="evenodd" clip-rule="evenodd" d="M6.27465 12.2329H0.792654C0.689932 12.2291 0.587515 12.2462 0.491518 12.2829C0.395522 12.3197 0.307916 12.3754 0.233931 12.4467C0.159946 12.5181 0.1011 12.6036 0.0609074 12.6982C0.0207149 12.7928 0 12.8946 0 12.9974C0 13.1001 0.0207149 13.2019 0.0609074 13.2965C0.1011 13.3911 0.159946 13.4766 0.233931 13.548C0.307916 13.6193 0.395522 13.6751 0.491518 13.7118C0.587515 13.7486 0.689932 13.7656 0.792654 13.7619H6.27465C6.4327 14.2093 6.72559 14.5966 7.11297 14.8706C7.50035 15.1446 7.96317 15.2917 8.43765 15.2917C8.91214 15.2917 9.37496 15.1446 9.76234 14.8706C10.1497 14.5966 10.4426 14.2093 10.6007 13.7619H13.0277C13.2256 13.7547 13.4131 13.671 13.5506 13.5284C13.6882 13.3858 13.765 13.1955 13.765 12.9974C13.765 12.7993 13.6882 12.6089 13.5506 12.4663C13.4131 12.3237 13.2256 12.24 13.0277 12.2329H10.6007C10.4426 11.7855 10.1497 11.3981 9.76234 11.1241C9.37496 10.8501 8.91214 10.703 8.43765 10.703C7.96317 10.703 7.50035 10.8501 7.11297 11.1241C6.72559 11.3981 6.4327 11.7855 6.27465 12.2329ZM7.67465 12.9979C7.67465 13.1492 7.71952 13.2971 7.80358 13.4229C7.88764 13.5487 8.00712 13.6467 8.1469 13.7046C8.28669 13.7625 8.4405 13.7777 8.5889 13.7482C8.73729 13.7186 8.8736 13.6458 8.98059 13.5388C9.08758 13.4318 9.16044 13.2955 9.18995 13.1471C9.21947 12.9987 9.20432 12.8449 9.14642 12.7051C9.08852 12.5653 8.99047 12.4458 8.86467 12.3618C8.73886 12.2777 8.59096 12.2329 8.43965 12.2329C8.33911 12.2326 8.2395 12.2522 8.14652 12.2904C8.05354 12.3287 7.96901 12.3849 7.89778 12.4559C7.82654 12.5268 7.76999 12.6111 7.73136 12.704C7.69274 12.7968 7.67279 12.8963 7.67265 12.9969L7.67465 12.9979Z" fill="#0096D6"/>
<path fill-rule="evenodd" clip-rule="evenodd" d="M13.7888 2.29385C13.789 2.49612 13.7091 2.69025 13.5664 2.83366C13.4238 2.97707 13.23 3.05805 13.0278 3.05885H11.4958C11.4532 3.05902 11.4107 3.05568 11.3688 3.04885C11.2122 3.49867 10.9195 3.8886 10.5313 4.16453C10.143 4.44046 9.67856 4.58871 9.20227 4.58871C8.72597 4.58871 8.26149 4.44046 7.87327 4.16453C7.48505 3.8886 7.19234 3.49867 7.03577 3.04885C6.99378 3.05568 6.9513 3.05902 6.90877 3.05885L0.792766 3.05885C0.594793 3.05169 0.407317 2.968 0.269793 2.82542C0.132268 2.68283 0.0554199 2.49245 0.0554199 2.29434C0.0554199 2.09624 0.132268 1.90587 0.269793 1.76328C0.407317 1.62069 0.594793 1.53701 0.792766 1.52985L6.90877 1.52985C6.9513 1.52967 6.99378 1.53301 7.03577 1.53985C7.19234 1.09003 7.48505 0.700096 7.87327 0.424163C8.26149 0.14823 8.72597 -2.38419e-05 9.20227 -2.38419e-05C9.67856 -2.38419e-05 10.143 0.14823 10.5313 0.424163C10.9195 0.700096 11.2122 1.09003 11.3688 1.53985C11.4107 1.53301 11.4532 1.52967 11.4958 1.52985H13.0278C13.2299 1.53064 13.4234 1.61148 13.5661 1.75467C13.7087 1.89787 13.7888 2.09174 13.7888 2.29385ZM9.20177 3.05885C9.05046 3.05885 8.90256 3.01398 8.77675 2.92992C8.65095 2.84586 8.5529 2.72638 8.495 2.5866C8.4371 2.44681 8.42195 2.293 8.45147 2.1446C8.48098 1.99621 8.55384 1.8599 8.66083 1.75291C8.76782 1.64592 8.90413 1.57306 9.05252 1.54355C9.20092 1.51403 9.35473 1.52918 9.49452 1.58708C9.6343 1.64498 9.75378 1.74303 9.83784 1.86883C9.9219 1.99464 9.96677 2.14254 9.96677 2.29385C9.9669 2.39434 9.9472 2.49388 9.9088 2.58675C9.8704 2.67963 9.81406 2.76401 9.743 2.83508C9.67193 2.90614 9.58755 2.96248 9.49467 3.00088C9.4018 3.03928 9.30226 3.05898 9.20177 3.05885Z" fill="#0096D6"/>
<path fill-rule="evenodd" clip-rule="evenodd" d="M4.61465 9.93887C4.14027 9.93894 3.67754 9.79194 3.29017 9.51811C2.9028 9.24428 2.60985 8.8571 2.45165 8.40987H0.792654C0.689932 8.41359 0.587515 8.39657 0.491518 8.35982C0.395522 8.32307 0.307916 8.26736 0.233931 8.196C0.159946 8.12464 0.1011 8.03911 0.0609074 7.9445C0.0207149 7.8499 0 7.74816 0 7.64537C0 7.54258 0.0207149 7.44085 0.0609074 7.34624C0.1011 7.25164 0.159946 7.1661 0.233931 7.09475C0.307916 7.02339 0.395522 6.96767 0.491518 6.93093C0.587515 6.89418 0.689932 6.87716 0.792654 6.88087H2.45265C2.6109 6.43246 2.90458 6.0443 3.29308 5.77009C3.68158 5.49589 4.14568 5.34919 4.6212 5.35029C5.09672 5.35139 5.56014 5.50023 5.94737 5.77623C6.33459 6.05222 6.62648 6.44173 6.78265 6.89087C6.82464 6.88404 6.86712 6.8807 6.90965 6.88087L13.0277 6.88087C13.2256 6.88803 13.4131 6.97171 13.5506 7.1143C13.6882 7.25689 13.765 7.44727 13.765 7.64537C13.765 7.84348 13.6882 8.03385 13.5506 8.17644C13.4131 8.31903 13.2256 8.40271 13.0277 8.40987H6.90865C6.86612 8.41005 6.82364 8.4067 6.78165 8.39987C6.6249 8.84961 6.33206 9.23941 5.94375 9.51519C5.55544 9.79096 5.09093 9.93904 4.61465 9.93887ZM4.61465 8.40987C4.46335 8.40987 4.31545 8.36501 4.18964 8.28095C4.06384 8.19689 3.96579 8.07741 3.90789 7.93763C3.84999 7.79784 3.83484 7.64402 3.86435 7.49563C3.89387 7.34723 3.96673 7.21092 4.07372 7.10394C4.1807 6.99695 4.31701 6.92409 4.46541 6.89457C4.61381 6.86505 4.76762 6.8802 4.90741 6.93811C5.04719 6.99601 5.16667 7.09406 5.25073 7.21986C5.33479 7.34567 5.37965 7.49357 5.37965 7.64487C5.37965 7.84776 5.29906 8.04234 5.15559 8.18581C5.01213 8.32928 4.81754 8.40987 4.61465 8.40987Z" fill="#0096D6"/>
</svg>
