<svg width="8" height="7" viewBox="0 0 8 7" fill="none" xmlns="http://www.w3.org/2000/svg">
<path d="M0.8 7H1.2V2.21053H0.8C0.587827 2.21053 0.384344 2.28816 0.234315 2.42634C0.0842854 2.56453 0 2.75195 0 2.94737V6.26316C0 6.45858 0.0842854 6.646 0.234315 6.78418C0.384344 6.92237 0.587827 7 0.8 7ZM7.2 2.21053H4.4L4.8488 0.969684C4.88885 0.858942 4.89976 0.741022 4.88063 0.625636C4.8615 0.51025 4.81289 0.4007 4.73879 0.306009C4.66469 0.211317 4.56723 0.134194 4.45443 0.0809921C4.34163 0.0277898 4.21673 3.02521e-05 4.09 0H4L2 2.00347V7H6.4L7.9648 3.83305L8 3.68421V2.94737C8 2.75195 7.91571 2.56453 7.76569 2.42634C7.61566 2.28816 7.41217 2.21053 7.2 2.21053Z" fill="white"/>
</svg>
