<svg width="5" height="7" viewBox="0 0 5 7" fill="none" xmlns="http://www.w3.org/2000/svg">
<path d="M2.19128 6.84271C1.5116 5.9627 -0.00012207 3.82983 -0.00012207 2.63181C-0.00012207 1.17828 1.11915 0 2.49988 0C3.88009 0 4.99988 1.17828 4.99988 2.63181C4.99988 3.82983 3.47644 5.9627 2.80847 6.84271C2.64832 7.05243 2.35144 7.05243 2.19128 6.84271ZM2.49988 3.50908C2.95951 3.50908 3.33321 3.11568 3.33321 2.63181C3.33321 2.14794 2.95951 1.75454 2.49988 1.75454C2.04024 1.75454 1.66654 2.14794 1.66654 2.63181C1.66654 3.11568 2.04024 3.50908 2.49988 3.50908Z" fill="white"/>
</svg>
