<svg width="15" height="20" viewBox="0 0 15 20" fill="none" xmlns="http://www.w3.org/2000/svg">
<path d="M7.79603 0.5C5.93257 0.564979 4.17076 1.36563 2.8963 2.72668C1.62184 4.08773 0.938554 5.89829 0.996029 7.762C0.996029 9.417 2.08503 11.87 4.23403 15.052C5.80203 17.375 7.39403 19.267 7.41003 19.286L7.79303 19.74L8.17603 19.286C8.19203 19.267 9.78303 17.375 11.352 15.052C13.501 11.87 14.59 9.417 14.59 7.762C14.6475 5.8993 13.9651 4.08962 12.6919 2.72874C11.4187 1.36786 9.65843 0.566529 7.79603 0.5V0.5ZM7.79603 18.087C5.88803 15.738 2.03003 10.436 2.03003 7.762C1.97804 6.9728 2.08859 6.18133 2.35485 5.43659C2.62112 4.69184 3.03742 4.00968 3.57798 3.43233C4.11855 2.85498 4.77187 2.39474 5.4975 2.0801C6.22313 1.76545 7.00562 1.60311 7.79653 1.60311C8.58744 1.60311 9.36993 1.76545 10.0956 2.0801C10.8212 2.39474 11.4745 2.85498 12.0151 3.43233C12.5556 4.00968 12.9719 4.69184 13.2382 5.43659C13.5045 6.18133 13.615 6.9728 13.563 7.762C13.563 10.434 9.70403 15.737 7.79603 18.087Z" fill="#262626"/>
<path d="M7.79606 10.261C9.20936 10.261 10.3551 9.1153 10.3551 7.70201C10.3551 6.28871 9.20936 5.14301 7.79606 5.14301C6.38276 5.14301 5.23706 6.28871 5.23706 7.70201C5.23706 9.1153 6.38276 10.261 7.79606 10.261Z" stroke="#262626"/>
</svg>
