<svg width="12" height="16" viewBox="0 0 12 16" fill="none" xmlns="http://www.w3.org/2000/svg">
<path d="M6.415 0.0549927C4.93077 0.107438 3.52775 0.745662 2.51292 1.83001C1.4981 2.91437 0.954115 4.35655 0.999998 5.84099C0.999998 7.15999 1.868 9.11399 3.58 11.649C4.83 13.5 6.098 15.008 6.11 15.023L6.41 15.384L6.71 15.023C6.723 15.008 7.991 13.5 9.24 11.649C10.952 9.11399 11.82 7.15899 11.82 5.84099C11.8659 4.35822 11.3233 2.9175 10.3106 1.83343C9.29794 0.749367 7.89746 0.110018 6.415 0.0549927V0.0549927ZM6.415 14.068C4.895 12.196 1.821 7.96799 1.821 5.84199C1.79054 5.21972 1.88681 4.59775 2.10396 4.0138C2.32111 3.42986 2.65461 2.8961 3.08425 2.44493C3.51389 1.99375 4.03069 1.63455 4.60333 1.38911C5.17596 1.14367 5.79248 1.01712 6.4155 1.01712C7.03851 1.01712 7.65504 1.14367 8.22767 1.38911C8.8003 1.63455 9.31711 1.99375 9.74675 2.44493C10.1764 2.8961 10.5099 3.42986 10.727 4.0138C10.9442 4.59775 11.0405 5.21972 11.01 5.84199C11.009 7.96999 7.935 12.196 6.415 14.068Z" fill="#075C81"/>
<path d="M6.41498 7.83299C7.54109 7.83299 8.45398 6.9201 8.45398 5.79399C8.45398 4.66788 7.54109 3.75499 6.41498 3.75499C5.28887 3.75499 4.37598 4.66788 4.37598 5.79399C4.37598 6.9201 5.28887 7.83299 6.41498 7.83299Z" stroke="#075C81"/>
</svg>
