<svg width="146" height="26" viewBox="0 0 146 26" fill="none" xmlns="http://www.w3.org/2000/svg">
<path d="M17.792 1.75201V2.64001L16.078 3.04001C15.924 3.06601 15.519 3.21401 15.519 3.88701V17.152C15.519 17.824 15.924 17.973 16.078 18.004L17.792 18.404V19.251H10.733V18.384L12.452 17.984C12.601 17.953 13.001 17.804 13.001 17.132V3.13201H5.09498V17.152C5.09498 17.824 5.49498 17.973 5.64898 18.004L7.36298 18.404V19.251H0.307983V18.384L2.02198 17.984C2.17098 17.974 2.56598 17.825 2.56598 17.153V3.88101C2.56598 3.20901 2.16098 3.06001 2.01198 3.03401L0.311983 2.63401V1.75201H17.792Z" fill="#231F20"/>
<path d="M28.017 17.746C27.4255 18.1768 26.7912 18.5455 26.124 18.846C25.2183 19.3083 24.2214 19.5641 23.205 19.595C22.5493 19.5988 21.9016 19.4501 21.3131 19.1609C20.7247 18.8716 20.2115 18.4495 19.814 17.928C18.9108 16.6206 18.4637 15.052 18.542 13.465C18.4997 11.6621 18.9673 9.88387 19.891 8.33498C20.3259 7.69656 20.9204 7.18308 21.6153 6.84555C22.3102 6.50802 23.0813 6.35821 23.852 6.41098C24.5099 6.35838 25.1698 6.48348 25.7628 6.77321C26.3559 7.06294 26.8601 7.50666 27.223 8.05798C27.7707 9.08465 28.0461 10.2346 28.023 11.398V12.024L27.423 12.67H20.911C20.8054 13.9932 21.0626 15.3201 21.655 16.508C21.916 16.9992 22.3098 17.4073 22.7913 17.6857C23.2729 17.9642 23.823 18.1018 24.379 18.083C25.5359 18.0073 26.6525 17.6279 27.616 16.983L28.017 17.746ZM24.677 11.59C25.0042 11.6134 25.3297 11.5249 25.6 11.339C25.705 11.2364 25.7844 11.1105 25.8316 10.9715C25.8789 10.8325 25.8927 10.6843 25.872 10.539C25.8951 9.83357 25.7584 9.13206 25.472 8.48698C25.318 8.15693 25.0709 7.87911 24.761 7.68775C24.4511 7.49638 24.092 7.39983 23.728 7.40998C23.276 7.40794 22.8335 7.53982 22.4564 7.78898C22.0793 8.03814 21.7844 8.39342 21.609 8.80998C21.2153 9.67979 21.0024 10.6205 20.983 11.575L24.677 11.59Z" fill="#231F20"/>
<path d="M50.79 17.746C50.1993 18.1779 49.5648 18.5466 48.897 18.846C47.9917 19.3093 46.9946 19.5652 45.978 19.595C45.3208 19.5998 44.6716 19.4517 44.0815 19.1624C43.4914 18.8731 42.9767 18.4505 42.578 17.928C41.6748 16.6207 41.2278 15.0521 41.306 13.465C41.2662 11.6624 41.7336 9.88486 42.655 8.33501C43.0906 7.69604 43.6859 7.18224 44.3817 6.8447C45.0775 6.50716 45.8495 6.35764 46.621 6.41101C47.278 6.35814 47.9372 6.48251 48.5297 6.77114C49.1223 7.05978 49.6266 7.50211 49.99 8.05201C50.5411 9.08462 50.8166 10.2419 50.79 11.412V12.038L50.19 12.684H43.7C43.5936 14.0078 43.8527 15.3354 44.449 16.522C44.7087 17.0133 45.1014 17.4216 45.5823 17.7001C46.0631 17.9786 46.6126 18.1162 47.168 18.097C48.325 18.0213 49.4415 17.6419 50.405 16.997L50.79 17.746ZM47.45 11.59C47.7772 11.6134 48.1027 11.5249 48.373 11.339C48.478 11.2364 48.5574 11.1105 48.6047 10.9715C48.6519 10.8325 48.6657 10.6844 48.645 10.539C48.6682 9.8336 48.5314 9.13209 48.245 8.48701C48.0891 8.15743 47.8408 7.88022 47.5303 7.68904C47.2198 7.49785 46.8605 7.40092 46.496 7.41001C46.044 7.40797 45.6015 7.53985 45.2244 7.78901C44.8473 8.03817 44.5524 8.39344 44.377 8.81001C43.9881 9.68141 43.7754 10.6211 43.751 11.575L47.45 11.59Z" fill="#231F20"/>
<path d="M40.1089 6.775V10.967H39.2619L38.8619 9.32C38.7939 8.95177 38.6488 8.60211 38.4359 8.294C38.3428 8.16472 38.219 8.06053 38.0758 7.99073C37.9325 7.92094 37.7742 7.8877 37.6149 7.894H35.9429V17.642C35.9414 17.7871 35.9925 17.9279 36.0869 18.0383C36.1812 18.1486 36.3123 18.221 36.4559 18.242L37.7079 18.488V19.237H32.0679V18.493L33.3149 18.247C33.4595 18.228 33.5918 18.1562 33.6866 18.0454C33.7813 17.9346 33.8316 17.7927 33.8279 17.647V7.899H32.1309C31.9716 7.89216 31.8131 7.92516 31.6698 7.995C31.5264 8.06484 31.4027 8.16933 31.3099 8.299C31.0975 8.60784 30.9507 8.95707 30.8789 9.325L30.4789 10.972H29.6379V6.772L40.1089 6.775Z" fill="#231F20"/>
<path d="M55.506 6.426V8.273C55.8672 7.80546 56.3071 7.40446 56.806 7.088C57.6687 6.55156 58.6878 6.32338 59.6969 6.44071C60.7059 6.55804 61.6454 7.01394 62.362 7.734C63.3593 9.14993 63.8443 10.8634 63.737 12.592C63.737 15.583 62.762 17.256 61.837 18.153C60.9016 19.0471 59.6629 19.5547 58.369 19.574C57.4294 19.5857 56.5119 19.2881 55.758 18.727V23.565C55.7543 23.7107 55.8047 23.8526 55.8994 23.9634C55.9941 24.0742 56.1265 24.146 56.271 24.165L58.02 24.465V25.055H51.863V24.48L53.11 24.18C53.2498 24.1508 53.376 24.076 53.4688 23.9675C53.5617 23.8589 53.6159 23.7227 53.623 23.58V8.919C53.6176 8.77583 53.564 8.63868 53.4709 8.52978C53.3778 8.42088 53.2506 8.34661 53.11 8.319L51.863 8.019V7.27C53.0385 7.12641 54.1925 6.84204 55.3 6.423L55.506 6.426ZM55.757 17.446C56.054 17.798 56.4227 18.0826 56.8385 18.2807C57.2543 18.4789 57.7076 18.586 58.168 18.595C58.644 18.6145 59.1162 18.5038 59.5339 18.2747C59.9515 18.0456 60.2987 17.7069 60.538 17.295C61.1475 15.9862 61.4394 14.5519 61.39 13.109C61.433 11.7142 61.1684 10.3271 60.615 9.046C60.4046 8.61571 60.073 8.25632 59.661 8.01203C59.249 7.76774 58.7745 7.6492 58.296 7.671C57.9643 7.66492 57.6349 7.72843 57.3292 7.85744C57.0235 7.98644 56.7482 8.17808 56.521 8.42C56.2501 8.72655 56.043 9.08404 55.9118 9.47157C55.7806 9.8591 55.728 10.2689 55.757 10.677V17.446Z" fill="#231F20"/>
<path d="M79.2961 23.464C79.5203 23.4425 79.7359 23.3668 79.9244 23.2435C80.1129 23.1201 80.2686 22.9528 80.3781 22.756C80.8265 22.1447 81.1888 21.4748 81.4551 20.765L81.9681 19.226L77.7311 8.33499C77.665 8.13344 77.5421 7.95529 77.3771 7.82199C77.1664 7.64683 76.9063 7.54193 76.6331 7.52199V6.77499H81.7171V7.52399L80.8961 7.62399C80.7973 7.62602 80.6999 7.64783 80.6096 7.68815C80.5194 7.72847 80.4382 7.78647 80.3708 7.85873C80.3034 7.93099 80.2512 8.01603 80.2172 8.10883C80.1832 8.20163 80.1682 8.30029 80.1731 8.39899C80.192 8.74262 80.2684 9.08064 80.3991 9.39899L83.1131 16.325H83.1641L85.3031 9.81499C85.4462 9.43909 85.5377 9.0455 85.5751 8.64499C85.5929 8.4067 85.5221 8.17021 85.3763 7.98087C85.2305 7.79153 85.02 7.66267 84.7851 7.61899L84.1591 7.51899V6.77499H88.3451V7.52399C87.8919 7.66929 87.4991 7.95952 87.2271 8.34999C86.9074 8.82658 86.6537 9.34429 86.4731 9.88899L82.3381 21.285C81.9791 22.3739 81.4381 23.394 80.7381 24.302C80.5018 24.5941 80.2254 24.8513 79.9171 25.066" fill="#231F20"/>
<path d="M136.366 23.464C136.59 23.4417 136.805 23.3656 136.994 23.2424C137.182 23.1191 137.338 22.9523 137.448 22.756C137.893 22.1433 138.253 21.4737 138.52 20.765L139.033 19.226L134.791 8.33499C134.727 8.13257 134.603 7.95395 134.437 7.82199C134.227 7.64534 133.967 7.54024 133.693 7.52199V6.77499H138.782V7.52399L137.961 7.62399C137.862 7.62602 137.765 7.64783 137.675 7.68815C137.584 7.72847 137.503 7.78647 137.436 7.85873C137.368 7.93099 137.316 8.01603 137.282 8.10883C137.248 8.20163 137.233 8.30029 137.238 8.39899C137.269 8.74399 137.356 9.08168 137.495 9.39899L140.195 16.325H140.246L142.385 9.81499C142.532 9.44001 142.625 9.0461 142.662 8.64499C142.681 8.40501 142.609 8.16673 142.461 7.9769C142.313 7.78708 142.099 7.65943 141.862 7.61899L141.236 7.51899V6.77499H145.428V7.52399C144.972 7.66738 144.577 7.95788 144.304 8.34999C143.984 8.82657 143.731 9.34428 143.55 9.88899L139.419 21.285C139.062 22.3747 138.521 23.3951 137.819 24.302C137.585 24.5965 137.309 24.8541 136.998 25.066" fill="#231F20"/>
<path d="M93.094 6.426V8.273C93.4589 7.80603 93.9014 7.40521 94.402 7.088C95.1055 6.62817 95.9317 6.39214 96.772 6.411C97.3678 6.38636 97.9618 6.49197 98.5125 6.72047C99.0633 6.94896 99.5576 7.29485 99.961 7.734C100.957 9.15053 101.44 10.864 101.331 12.592C101.331 15.583 100.356 17.256 99.431 18.153C98.4915 19.059 97.242 19.5729 95.937 19.59C94.9956 19.6011 94.0764 19.3036 93.32 18.743V23.581C93.3163 23.7267 93.3666 23.8687 93.4613 23.9794C93.5561 24.0902 93.6885 24.162 93.833 24.181L95.577 24.481V25.071H89.454V24.481L90.701 24.181C90.8412 24.1526 90.9678 24.0781 91.0608 23.9693C91.1538 23.8606 91.2077 23.7239 91.214 23.581V8.919C91.2085 8.77583 91.1549 8.63868 91.0618 8.52978C90.9687 8.42088 90.8416 8.34661 90.701 8.319L89.454 8.019V7.27C90.6293 7.12575 91.7832 6.84139 92.891 6.423L93.094 6.426ZM93.345 17.446C93.6428 17.7984 94.0123 18.0832 94.4289 18.2813C94.8456 18.4795 95.2997 18.5864 95.761 18.595C96.2369 18.6145 96.7092 18.5038 97.1268 18.2747C97.5445 18.0456 97.8917 17.7069 98.131 17.295C98.7369 15.9852 99.0271 14.5514 98.978 13.109C99.0224 11.7146 98.7596 10.3275 98.208 9.046C97.9969 8.61621 97.6652 8.25725 97.2533 8.01304C96.8414 7.76884 96.3673 7.64998 95.889 7.671C95.5571 7.6643 95.2276 7.72753 94.9218 7.85657C94.6159 7.98562 94.3407 8.17759 94.114 8.42C93.8406 8.7274 93.6316 9.08649 93.4993 9.47604C93.3671 9.86558 93.3142 10.2777 93.344 10.688L93.345 17.446Z" fill="#231F20"/>
<path d="M124.804 6.42601V8.27301C125.167 7.80674 125.606 7.40596 126.104 7.08801C126.968 6.55172 127.987 6.32365 128.997 6.44095C130.007 6.55826 130.947 7.01402 131.665 7.73401C132.661 9.15054 133.144 10.864 133.035 12.592C133.035 15.583 132.06 17.256 131.135 18.153C130.201 19.0459 128.964 19.5534 127.672 19.574C126.729 19.5854 125.808 19.288 125.05 18.727V23.565C125.049 23.7102 125.1 23.8509 125.194 23.9613C125.288 24.0716 125.419 24.144 125.563 24.165L127.312 24.465V25.055H121.154V24.48L122.401 24.18C122.541 24.1516 122.668 24.0771 122.761 23.9683C122.854 23.8596 122.908 23.7229 122.914 23.58V8.91901C122.91 8.77557 122.856 8.63796 122.763 8.52888C122.67 8.4198 122.542 8.34578 122.401 8.31901L121.154 8.01901V7.27001C122.331 7.12551 123.486 6.84117 124.596 6.42301L124.804 6.42601ZM125.05 17.446C125.35 17.7979 125.72 18.0822 126.138 18.2803C126.555 18.4783 127.01 18.5856 127.472 18.595C127.947 18.6148 128.419 18.5042 128.836 18.275C129.253 18.0458 129.599 17.7069 129.837 17.295C130.446 15.9862 130.738 14.5519 130.689 13.109C130.731 11.7148 130.468 10.3282 129.919 9.04601C129.708 8.61541 129.375 8.2559 128.962 8.01164C128.549 7.76738 128.074 7.64899 127.595 7.67101C127.264 7.66438 126.935 7.72767 126.63 7.85673C126.325 7.98579 126.051 8.17773 125.825 8.42001C125.552 8.72569 125.343 9.08278 125.21 9.47035C125.077 9.85792 125.023 10.2682 125.05 10.677V17.446Z" fill="#231F20"/>
<path d="M111.525 6.77499V10.967H110.678L110.303 9.31999C110.233 8.9524 110.088 8.60317 109.877 8.29399C109.784 8.16465 109.66 8.06041 109.517 7.9906C109.374 7.9208 109.215 7.8876 109.056 7.89399H106.198V17.642C106.196 17.7871 106.248 17.9279 106.342 18.0382C106.436 18.1486 106.567 18.221 106.711 18.242L107.958 18.488V19.237H102.572V18.493L103.572 18.247C103.716 18.226 103.847 18.1536 103.941 18.0432C104.035 17.9329 104.087 17.7921 104.085 17.647V8.37099C104.087 8.22585 104.035 8.08507 103.941 7.97475C103.847 7.86442 103.716 7.79203 103.572 7.77099L102.572 7.52499V6.77499H111.525Z" fill="#231F20"/>
<path d="M70.98 6.369C70.4204 6.36013 69.8646 6.46263 69.3449 6.67053C68.8253 6.87843 68.3521 7.18758 67.953 7.58C67.3943 8.17599 66.9662 8.88205 66.696 9.653H66.604C66.6666 8.64334 66.8246 7.64187 67.076 6.662C67.476 5.19 68.318 3.707 70.247 3.774L72.397 3.825C73.3879 3.91505 74.3861 3.77084 75.311 3.404C76.111 3.024 76.204 1.942 76.204 1.018L75.771 0.931C75.771 1.223 75.74 1.552 74.991 1.736C74.2703 1.85133 73.5383 1.87887 72.811 1.818L71.011 1.762C69.267 1.7 67.066 2.198 66.055 5.989C65.6065 7.89927 65.4168 9.86118 65.491 11.822C65.491 13.931 65.681 16.352 67.107 17.978C67.5747 18.4996 68.1511 18.9122 68.7956 19.187C69.44 19.4617 70.1369 19.5917 70.837 19.568C71.5265 19.5801 72.211 19.4496 72.8477 19.1848C73.4844 18.92 74.0595 18.5265 74.537 18.029C75.7047 16.5997 76.2893 14.782 76.174 12.94C76.2829 11.098 75.7002 9.2818 74.54 7.847C74.0798 7.36959 73.5262 6.992 72.9138 6.73773C72.3013 6.48346 71.6431 6.35794 70.98 6.369ZM73.135 17.045C72.9581 17.5061 72.641 17.9 72.2284 18.1714C71.8158 18.4428 71.3285 18.578 70.835 18.558C70.3273 18.579 69.8252 18.4457 69.3948 18.1756C68.9644 17.9055 68.6259 17.5113 68.424 17.045C67.8492 15.7717 67.5991 14.3757 67.696 12.982C67.5987 11.5882 67.8492 10.192 68.425 8.919C68.6237 8.4476 68.9612 8.04786 69.3926 7.77294C69.824 7.49803 70.3288 7.36097 70.84 7.38C71.3366 7.36172 71.8263 7.50065 72.2393 7.777C72.6523 8.05334 72.9675 8.453 73.14 8.919C73.7132 10.1929 73.9636 11.5883 73.869 12.982C73.9614 14.3765 73.7089 15.7722 73.134 17.046L73.135 17.045Z" fill="#231F20"/>
<path d="M117.23 18.682C117.23 18.9773 117.142 19.2659 116.978 19.5115C116.814 19.757 116.581 19.9483 116.308 20.0613C116.036 20.1743 115.735 20.2039 115.446 20.1463C115.156 20.0887 114.89 19.9465 114.681 19.7377C114.473 19.5289 114.33 19.2629 114.273 18.9733C114.215 18.6837 114.245 18.3835 114.358 18.1106C114.471 17.8378 114.662 17.6047 114.908 17.4406C115.153 17.2766 115.442 17.189 115.737 17.189C116.133 17.189 116.513 17.3463 116.793 17.6263C117.073 17.9063 117.23 18.286 117.23 18.682Z" fill="#231F20"/>
<path d="M11.928 23.802C11.157 24.5633 10.1322 25.0134 9.05 25.066C7.96175 25.0165 6.93056 24.565 6.156 23.799C5.38679 24.5633 4.36118 25.0148 3.278 25.066C2.64868 25.0239 2.03422 24.8558 1.47112 24.5717C0.908011 24.2876 0.407738 23.8932 0 23.412H0L0.826 22.591C1.445 23.3323 2.32848 23.8033 3.289 23.904C3.76695 23.86 4.23135 23.7212 4.6551 23.4958C5.07884 23.2703 5.45343 22.9628 5.757 22.591L6.167 22.175L6.583 22.591C6.88675 22.9624 7.26123 23.2698 7.68472 23.4954C8.10821 23.721 8.57228 23.8602 9.05 23.905C9.52782 23.8604 9.99203 23.7214 10.4157 23.496C10.8394 23.2706 11.214 22.9633 11.518 22.592L11.928 22.176L12.338 22.592C12.642 22.9633 13.0166 23.2706 13.4403 23.496C13.864 23.7214 14.3282 23.8604 14.806 23.905C15.284 23.861 15.7484 23.7222 16.1721 23.4968C16.5958 23.2713 16.9704 22.9638 17.274 22.592L18.095 23.413C17.6828 23.8917 17.18 24.2842 16.6156 24.5679C16.0511 24.8516 15.4361 25.0209 14.806 25.066C13.7232 25.0133 12.6981 24.562 11.928 23.799V23.802Z" fill="#0096D6"/>
</svg>
