<svg width="29" height="25" viewBox="0 0 29 25" fill="none" xmlns="http://www.w3.org/2000/svg">
<path d="M21.653 23.8845C23.308 22.9225 28.253 19.9945 28.253 19.9945C28.3951 19.911 28.5128 19.7918 28.5944 19.6486C28.676 19.5054 28.7186 19.3433 28.718 19.1785V5.2005C28.7179 5.03458 28.674 4.87162 28.5908 4.7281C28.5075 4.58459 28.3878 4.46561 28.2438 4.3832C28.0998 4.3008 27.9366 4.25789 27.7707 4.25882C27.6048 4.25975 27.442 4.30448 27.299 4.3885L21.179 7.9885L15.059 4.3885C14.9159 4.30435 14.7532 4.25948 14.5873 4.25842C14.4213 4.25737 14.2581 4.30017 14.114 4.3825V4.3825L12.895 5.0985C12.895 5.0355 12.895 4.9735 12.895 4.9105C12.895 3.60815 12.3776 2.35915 11.4567 1.43825C10.5358 0.517356 9.28681 0 7.98447 0C6.68212 0 5.43312 0.517356 4.51222 1.43825C3.59132 2.35915 3.07397 3.60815 3.07397 4.9105C3.07397 4.9755 3.07397 5.0405 3.07397 5.1105L1.83697 4.3885C1.69389 4.30448 1.53117 4.25975 1.36525 4.25882C1.19934 4.25789 1.03612 4.3008 0.89211 4.3832C0.748102 4.46561 0.628414 4.58459 0.545156 4.7281C0.461897 4.87162 0.418022 5.03458 0.417969 5.2005V19.1785C0.417919 19.3425 0.460702 19.5037 0.542084 19.6461C0.623466 19.7886 0.740625 19.9073 0.881969 19.9905L7.49097 23.8785H7.49697C7.64105 23.9608 7.80433 24.0036 7.97028 24.0026C8.13622 24.0015 8.29894 23.9567 8.44197 23.8725L14.574 20.2725L20.706 23.8725C20.8505 23.9576 21.0152 24.0025 21.183 24.0025C21.3473 24.0053 21.5095 23.9646 21.653 23.8845ZM7.97397 1.8895C8.77645 1.89056 9.54577 2.20981 10.1132 2.77726C10.6807 3.3447 10.9999 4.11401 11.001 4.9165C11.001 6.8545 9.15397 9.0845 7.96197 10.2555C6.93497 9.2835 4.94597 7.1165 4.94597 4.9165C4.94703 4.11384 5.26642 3.34438 5.83408 2.77691C6.40174 2.20943 7.17131 1.89029 7.97397 1.8895V1.8895ZM2.30097 18.6445V6.8445L3.71797 7.6785C4.53013 9.30745 5.65482 10.7607 7.02797 11.9555V21.4225L2.30097 18.6445ZM13.635 18.6445L8.90997 21.4215V11.9515C10.2443 10.7393 11.3526 9.29959 12.183 7.6995L13.635 6.8465V18.6445ZM20.218 21.4085L15.518 18.6445V6.8445L20.218 9.6085V21.4085ZM26.827 18.6445L22.127 21.4085V9.6085L26.827 6.8445V18.6445Z" fill="#262626"/>
<path d="M9.575 4.9335C9.575 4.61705 9.48116 4.3077 9.30535 4.04458C9.12954 3.78147 8.87966 3.57639 8.5873 3.45529C8.29494 3.33419 7.97323 3.3025 7.66286 3.36424C7.35249 3.42598 7.06739 3.57836 6.84363 3.80213C6.61987 4.02589 6.46748 4.31098 6.40574 4.62135C6.34401 4.93172 6.37569 5.25343 6.49679 5.54579C6.61789 5.83815 6.82297 6.08804 7.08609 6.26385C7.34921 6.43966 7.65855 6.53349 7.975 6.53349C8.39935 6.53349 8.80631 6.36492 9.10637 6.06487C9.40643 5.76481 9.575 5.35784 9.575 4.9335V4.9335ZM7.692 4.9335C7.692 4.87772 7.70854 4.8232 7.73953 4.77683C7.77051 4.73045 7.81455 4.69431 7.86608 4.67296C7.91761 4.65162 7.97431 4.64603 8.02902 4.65692C8.08372 4.6678 8.13396 4.69465 8.1734 4.73409C8.21284 4.77353 8.2397 4.82378 8.25058 4.87848C8.26146 4.93318 8.25588 4.98989 8.23454 5.04141C8.21319 5.09294 8.17704 5.13698 8.13067 5.16797C8.0843 5.19896 8.02978 5.2155 7.974 5.2155C7.89929 5.21523 7.82772 5.18544 7.77489 5.13261C7.72206 5.07978 7.69227 5.00821 7.692 4.9335V4.9335Z" fill="#262626"/>
</svg>
