<svg width="13" height="11" viewBox="0 0 13 11" fill="none" xmlns="http://www.w3.org/2000/svg">
<path d="M11.7993 2.078H0.406192C0.181849 2.078 0 2.25985 0 2.48415V8.5158C0 8.7401 0.181849 8.92199 0.406192 8.92199H11.7993C12.0236 8.92199 12.2055 8.74014 12.2055 8.5158V2.48415C12.2055 2.25985 12.0236 2.078 11.7993 2.078ZM0.812342 2.8903H2.10629L0.812342 4.18425V2.8903ZM0.812342 8.10961V6.81566L2.10629 8.10961H0.812342ZM11.3931 8.10965H10.0992L11.3931 6.8157V8.10965ZM11.3931 5.66682L8.95032 8.10965H3.25516L0.812342 5.66682V5.33317L3.25516 2.89035H8.95032L11.3931 5.33317V5.66682ZM11.3931 4.18429L10.0992 2.89039H11.3931V4.18429Z" fill="white"/>
<path d="M6.1027 3.2254C4.84849 3.2254 3.82812 4.24577 3.82812 5.49998C3.82812 6.75418 4.84849 7.77455 6.1027 7.77455C7.35691 7.77455 8.37728 6.75422 8.37728 5.49998C8.37728 4.24573 7.35691 3.2254 6.1027 3.2254ZM6.1027 6.96221C5.29644 6.96221 4.64047 6.30628 4.64047 5.49998C4.64047 4.69368 5.2964 4.03779 6.1027 4.03779C6.909 4.03779 7.56493 4.69372 7.56493 5.50002C7.56493 6.30632 6.90896 6.96221 6.1027 6.96221Z" fill="white"/>
<line x1="1.62835" y1="10.6655" x2="10.6284" y2="0.665518" stroke="white"/>
</svg>
