<svg width="20" height="20" viewBox="0 0 20 20" fill="none" xmlns="http://www.w3.org/2000/svg">
<path d="M13.939 9.18164H13.769C13.6923 9.18164 13.6188 9.21209 13.5646 9.26628C13.5104 9.32048 13.48 9.39399 13.48 9.47064V11.0126H13.488C13.4965 11.0813 13.5297 11.1446 13.5814 11.1906C13.6331 11.2366 13.6998 11.2622 13.769 11.2626H13.939C14.0082 11.2622 14.0749 11.2366 14.1266 11.1906C14.1783 11.1446 14.2115 11.0813 14.22 11.0126H14.228V9.46564C14.2281 9.42765 14.2207 9.39001 14.2063 9.35489C14.1918 9.31976 14.1705 9.28785 14.1436 9.26099C14.1168 9.23413 14.0849 9.21284 14.0497 9.19837C14.0146 9.18389 13.977 9.17651 13.939 9.17664V9.18164ZM15.013 9.18164H14.843C14.805 9.18164 14.7674 9.18911 14.7324 9.20364C14.6973 9.21816 14.6655 9.23945 14.6386 9.26628C14.6118 9.29312 14.5905 9.32498 14.576 9.36004C14.5615 9.3951 14.554 9.43269 14.554 9.47064V9.47064V11.0126H14.562C14.5705 11.0813 14.6037 11.1446 14.6554 11.1906C14.7071 11.2366 14.7738 11.2622 14.843 11.2626H15.013C15.0822 11.2622 15.1489 11.2366 15.2006 11.1906C15.2523 11.1446 15.2855 11.0813 15.294 11.0126H15.302V9.46564C15.302 9.42769 15.2945 9.39011 15.28 9.35504C15.2655 9.31998 15.2442 9.28812 15.2173 9.26128C15.1905 9.23445 15.1586 9.21316 15.1236 9.19864C15.0885 9.18411 15.0509 9.17664 15.013 9.17664V9.18164Z" fill="#0096D6"/>
<path d="M10 0.717651C8.12108 0.717651 6.28435 1.27482 4.72209 2.31869C3.15982 3.36256 1.94218 4.84626 1.22315 6.58216C0.504116 8.31806 0.315985 10.2282 0.682544 12.071C1.0491 13.9138 1.95389 15.6066 3.28249 16.9352C4.61109 18.2638 6.30383 19.1686 8.14665 19.5351C9.98947 19.9017 11.8996 19.7135 13.6355 18.9945C15.3714 18.2755 16.8551 17.0578 17.899 15.4956C18.9428 13.9333 19.5 12.0966 19.5 10.2177C19.5 7.69809 18.4991 5.28173 16.7175 3.50014C14.9359 1.71854 12.5196 0.717651 10 0.717651V0.717651ZM10 17.1997C8.673 17.2003 7.37332 16.8226 6.25339 16.1108C5.13346 15.3989 4.23972 14.3825 3.67698 13.1808C3.11425 11.979 2.90586 10.6417 3.07625 9.32565C3.24665 8.00963 3.78876 6.76948 4.639 5.75065L8.067 9.17765H4.987C4.91036 9.17765 4.83685 9.2081 4.78265 9.2623C4.72845 9.3165 4.698 9.39 4.698 9.46665V9.46665V10.9667C4.698 11.0433 4.72845 11.1168 4.78265 11.171C4.83685 11.2252 4.91036 11.2557 4.987 11.2557H10.147L14.468 15.5767C13.2157 16.6259 11.6338 17.2006 10 17.1997ZM15.361 14.6847L11.934 11.2577H12.811C12.8877 11.2577 12.9612 11.2272 13.0154 11.173C13.0696 11.1188 13.1 11.0453 13.1 10.9687V9.46865C13.1 9.392 13.0696 9.3185 13.0154 9.2643C12.9612 9.2101 12.8877 9.17965 12.811 9.17965H9.854L5.533 4.85665C6.87069 3.74155 8.57699 3.16694 10.3167 3.24572C12.0564 3.32449 13.7038 4.05095 14.9353 5.28238C16.1667 6.51381 16.8932 8.16121 16.9719 9.90094C17.0507 11.6407 16.4761 13.347 15.361 14.6847V14.6847Z" fill="#0096D6"/>
</svg>
