<svg width="16" height="14" viewBox="0 0 16 14" fill="none" xmlns="http://www.w3.org/2000/svg">
<path d="M14 5V2C14 0.9 13.1 0 12 0H4C2.9 0 2 0.9 2 2V5C0.9 5 0 5.9 0 7V12H1.33L1.84 13.53C1.94 13.81 2.2 14 2.5 14C2.64517 13.9998 2.78667 13.9544 2.90491 13.8702C3.02316 13.786 3.1123 13.6671 3.16 13.53L3.67 12H12.34L12.85 13.53C12.94 13.81 13.2 14 13.5 14C13.6452 13.9998 13.7867 13.9544 13.9049 13.8702C14.0232 13.786 14.1123 13.6671 14.16 13.53L14.67 12H16V7C16 5.9 15.1 5 14 5ZM7 5H4V3C4 2.45 4.45 2 5 2H7V5ZM12 5H9V2H11C11.55 2 12 2.45 12 3V5Z" fill="black"/>
</svg>
