<svg width="21" height="20" viewBox="0 0 21 20" fill="none" xmlns="http://www.w3.org/2000/svg">
<path d="M18.262 0H2.631C2.0659 0.000264992 1.52403 0.224866 1.12445 0.624448C0.724866 1.02403 0.500265 1.5659 0.5 2.131V17.761C0.500265 18.3261 0.724866 18.868 1.12445 19.2676C1.52403 19.6671 2.0659 19.8917 2.631 19.892H18.261C18.8261 19.8917 19.368 19.6671 19.7676 19.2676C20.1671 18.868 20.3917 18.3261 20.392 17.761V2.131C20.3917 1.56608 20.1673 1.02436 19.7679 0.624801C19.3685 0.225247 18.8269 0.000529884 18.262 0V0ZM11.162 12.788H9.026V14.92C9.02521 15.1081 8.95015 15.2882 8.81717 15.4212C8.68419 15.5542 8.50406 15.6292 8.316 15.63H6.894C6.70594 15.6292 6.52581 15.5542 6.39283 15.4212C6.25985 15.2882 6.18479 15.1081 6.184 14.92V4.973C6.18479 4.78494 6.25985 4.60481 6.39283 4.47183C6.52581 4.33885 6.70594 4.26379 6.894 4.263H11.157C12.2876 4.263 13.3719 4.71214 14.1714 5.5116C14.9709 6.31107 15.42 7.39538 15.42 8.526C15.42 9.65662 14.9709 10.7409 14.1714 11.5404C13.3719 12.3399 12.2876 12.789 11.157 12.789L11.162 12.788ZM11.162 7.104H9.026V9.947H11.157C11.5339 9.947 11.8953 9.79729 12.1618 9.5308C12.4283 9.26431 12.578 8.90287 12.578 8.526C12.578 8.14913 12.4283 7.78769 12.1618 7.5212C11.8953 7.25471 11.5339 7.105 11.157 7.105L11.162 7.104Z" fill="#0096D6"/>
</svg>
