<svg width="5" height="8" viewBox="0 0 5 8" fill="none" xmlns="http://www.w3.org/2000/svg">
<path d="M4.00019 0.750037C4.00019 1.16428 3.66424 1.50007 3.25016 1.50007C2.83607 1.50007 2.50012 1.16428 2.50012 0.750037C2.50012 0.335798 2.83607 0 3.25016 0C3.66424 0 4.00019 0.335798 4.00019 0.750037ZM1.97666 3.11421C1.96259 3.12047 1.94697 3.12672 1.93291 3.13297L1.76102 3.20953C1.5221 3.31579 1.33475 3.50955 1.23787 3.75175L1.21428 3.81112C1.11177 4.06739 0.820821 4.19239 0.564402 4.08926C0.307983 3.98613 0.18329 3.69549 0.285795 3.43923L0.30939 3.37985C0.502993 2.89702 0.877855 2.50794 1.35413 2.29542L1.52601 2.21886C1.85165 2.0751 2.18917 2.0001 2.55793 2.0001C3.25484 2.0001 3.883 2.41887 4.1502 3.06109L4.37677 3.63612L4.72366 3.80331C4.97055 3.92675 5.07056 4.22677 4.94711 4.47366C4.82367 4.72054 4.52365 4.82055 4.27677 4.6971L3.85956 4.48928C3.69861 4.40803 3.57205 4.27208 3.50329 4.10645L3.35329 3.74706L3.05171 4.77055L3.82518 5.6159C3.90956 5.70809 3.9705 5.81903 4.00019 5.94092L4.35958 7.37849C4.42677 7.64725 4.26427 7.91914 3.99707 7.98477C3.7283 8.05196 3.45642 7.88945 3.37672 7.62225L3.04546 6.24406L1.94228 5.03931C1.71102 4.78773 1.61101 4.43615 1.71258 4.10645L1.97666 3.11421ZM1.07396 6.21905L1.46398 5.24401C1.49757 5.29088 1.53382 5.33464 1.57351 5.37839L2.20948 6.07217L1.98291 6.63782C1.94541 6.73314 1.88915 6.81908 1.81727 6.8894L0.853635 7.85351C0.658313 8.04883 0.341735 8.04883 0.146445 7.85351C-0.0488148 7.65819 -0.0488148 7.34255 0.146445 7.14722L1.07396 6.21905Z" fill="#262626"/>
</svg>
