<svg width="17" height="17" viewBox="0 0 17 17" fill="none" xmlns="http://www.w3.org/2000/svg">
<path d="M13.2042 12.7508C13.7344 13.388 14.0803 14.1581 14.2042 14.9778C14.2042 16.1458 13.3362 16.7128 12.1672 16.7128C11.5728 16.7412 10.9838 16.5885 10.4782 16.2748C9.94774 15.9065 9.29987 15.7473 8.65916 15.8278C8.01328 15.7461 7.36013 15.9079 6.82716 16.2818C6.32569 16.5935 5.74082 16.7443 5.15116 16.7138C3.98216 16.7138 3.11416 16.1478 3.11416 14.9788C3.2385 14.1593 3.58427 13.3892 4.11416 12.7518C4.79044 11.6215 5.59255 10.5715 6.50516 9.62179C7.06587 9.17156 7.75925 8.91853 8.47816 8.90179H8.83916C9.55966 8.91158 10.2555 9.1654 10.8132 9.62179C11.7054 10.5884 12.5059 11.6359 13.2042 12.7508ZM5.80216 7.48179C7.02116 7.48179 8.01516 5.93379 8.01516 4.02979C8.01516 2.12579 7.02116 0.581787 5.80216 0.581787C4.58316 0.581787 3.58916 2.12579 3.58916 4.02979C3.58916 5.93379 4.58016 7.48179 5.80216 7.48179ZM3.68216 10.8178C4.58216 10.4018 4.78816 8.92779 4.14016 7.52479C3.49216 6.12179 2.24016 5.32479 1.34016 5.73679C0.440156 6.14879 0.231156 7.62579 0.878156 9.02879C1.52516 10.4318 2.78116 11.2328 3.68216 10.8178ZM10.9472 7.48179C12.1692 7.48179 13.1602 5.93779 13.1602 4.03379C13.1602 2.12979 12.1692 0.581787 10.9472 0.581787C9.72516 0.581787 8.73416 2.12579 8.73416 4.02979C8.73416 5.93379 9.72116 7.48179 10.9472 7.48179ZM15.4132 5.73879C14.5132 5.32279 13.2572 6.12379 12.6132 7.52679C11.9692 8.92979 12.1712 10.4048 13.0722 10.8208C13.9732 11.2368 15.2282 10.4358 15.8722 9.03279C16.5162 7.62979 16.3142 6.15079 15.4132 5.73479V5.73879Z" fill="#0096D6"/>
</svg>
