<svg width="9" height="17" viewBox="0 0 9 17" fill="none" xmlns="http://www.w3.org/2000/svg">
<path d="M4.48667 16.402L4.42766 16.3503C-2.04941 9.98563 2.02157 3.38269 3.42415 1.50782C3.53283 1.36171 3.66926 1.23848 3.82563 1.14519C3.98201 1.0519 4.15526 0.990385 4.33545 0.964165C4.51564 0.937945 4.69924 0.947539 4.87572 0.992395C5.0522 1.03725 5.21809 1.11649 5.36389 1.22557L7.27642 2.9003C7.41557 3.02191 7.515 3.18251 7.56183 3.36128C7.60865 3.54005 7.60072 3.72877 7.53906 3.90298L6.9299 5.66314C6.8702 5.83381 6.76168 5.98318 6.61781 6.09269C6.47394 6.20221 6.30106 6.26704 6.12066 6.27914L4.72785 6.378C4.26866 7.13541 4.05319 8.01559 4.11062 8.89946C4.16804 9.78334 4.49557 10.6282 5.0489 11.3199L6.45559 11.2332C6.63653 11.2237 6.81626 11.2677 6.97237 11.3596C7.12847 11.4516 7.25404 11.5875 7.33342 11.7504L8.18303 13.4204C8.26378 13.5849 8.29374 13.7696 8.26909 13.9512C8.24445 14.1328 8.16631 14.3029 8.04463 14.4399L6.43981 16.2725C6.19797 16.5487 5.85634 16.7175 5.49005 16.7418C5.12377 16.7661 4.76284 16.6439 4.48667 16.402ZM4.83931 1.99272C4.74725 1.91211 4.62694 1.87137 4.50485 1.87946C4.38275 1.88755 4.26887 1.94382 4.18826 2.03587L4.16395 2.06364C2.52427 4.25829 -0.707001 10.0143 5.07373 15.6896C5.11687 15.7323 5.16801 15.7661 5.22424 15.7891C5.28047 15.812 5.34068 15.8236 5.4014 15.8232C5.46213 15.8229 5.52218 15.8105 5.57812 15.7869C5.63406 15.7632 5.68478 15.7288 5.72737 15.6855L7.35043 13.832L6.50081 12.162L4.63839 12.2789L4.49002 12.1122C1.80154 9.08952 4.03628 5.71109 4.06363 5.67985L4.1887 5.49501L6.04678 5.36203L6.672 3.59754L4.83931 1.99272Z" fill="#262626"/>
</svg>
