<svg width="20" height="15" viewBox="0 0 20 15" fill="none" xmlns="http://www.w3.org/2000/svg">
<path d="M3.97402 4.37009C5.37925 4.37009 6.12214 3.6272 6.66414 3.0842C7.15145 2.5969 7.39112 2.38109 7.94904 2.38109C8.50695 2.38109 8.74663 2.5969 9.23393 3.0842C9.77593 3.6272 10.5188 4.37009 11.925 4.37009C13.3323 4.37009 14.0762 3.6272 14.6201 3.0842C15.1084 2.5969 15.3481 2.38109 15.908 2.38109C16.4679 2.38109 16.7076 2.5969 17.1959 3.0842C17.7389 3.6272 18.4828 4.37009 19.89 4.37009V2.38109C19.3301 2.38109 19.0904 2.16528 18.6021 1.67798C18.0591 1.13498 17.3152 0.39209 15.908 0.39209C14.5008 0.39209 13.7579 1.13498 13.2139 1.67698C12.7256 2.16528 12.4869 2.38109 11.925 2.38109C11.3661 2.38109 11.1275 2.16528 10.6402 1.67798C10.0982 1.13498 9.35526 0.39209 7.94904 0.39209C6.54282 0.39209 5.79992 1.13498 5.25792 1.67798C4.77062 2.16528 4.53194 2.38109 3.97402 2.38109C3.41611 2.38109 3.17743 2.16528 2.69012 1.67798C2.14812 1.13498 1.40523 0.39209 0 0.39209V2.38109C0.557914 2.38109 0.796594 2.5969 1.2839 3.0842C1.8259 3.6272 2.56879 4.37009 3.97402 4.37009ZM3.97402 9.34259C5.37925 9.34259 6.12214 8.5997 6.66414 8.0567C7.15145 7.5694 7.39112 7.35359 7.94904 7.35359C8.50695 7.35359 8.74663 7.5694 9.23393 8.0567C9.77593 8.5997 10.5188 9.34259 11.925 9.34259C13.3323 9.34259 14.0762 8.5997 14.6201 8.0567C15.1084 7.5694 15.3481 7.35359 15.908 7.35359C16.4679 7.35359 16.7076 7.5694 17.1959 8.0567C17.7389 8.5997 18.4828 9.34259 19.89 9.34259V7.35359C19.3301 7.35359 19.0904 7.13778 18.6021 6.65048C18.0591 6.10748 17.3152 5.36459 15.908 5.36459C14.5008 5.36459 13.7579 6.10748 13.2139 6.64948C12.7256 7.13778 12.4869 7.35359 11.925 7.35359C11.3661 7.35359 11.1275 7.13778 10.6402 6.65048C10.0982 6.10748 9.35526 5.36459 7.94904 5.36459C6.54282 5.36459 5.79992 6.10748 5.25792 6.65048C4.77062 7.13778 4.53194 7.35359 3.97402 7.35359C3.41611 7.35359 3.17743 7.13778 2.69012 6.65048C2.14812 6.10748 1.40523 5.36459 0 5.36459V7.35359C0.557914 7.35359 0.796594 7.5694 1.2839 8.0567C1.8259 8.5997 2.56879 9.34259 3.97402 9.34259ZM3.97402 14.3151C5.37925 14.3151 6.12214 13.5722 6.66414 13.0292C7.15145 12.5419 7.39112 12.3261 7.94904 12.3261C8.50695 12.3261 8.74663 12.5419 9.23393 13.0292C9.77593 13.5722 10.5188 14.3151 11.925 14.3151C13.3323 14.3151 14.0762 13.5722 14.6201 13.0292C15.1084 12.5419 15.3481 12.3261 15.908 12.3261C16.4679 12.3261 16.7076 12.5419 17.1959 13.0292C17.7389 13.5722 18.4828 14.3151 19.89 14.3151V12.3261C19.3301 12.3261 19.0904 12.1103 18.6021 11.623C18.0591 11.08 17.3152 10.3371 15.908 10.3371C14.5008 10.3371 13.7579 11.08 13.2139 11.622C12.7256 12.1103 12.4869 12.3261 11.925 12.3261C11.3661 12.3261 11.1275 12.1103 10.6402 11.623C10.0982 11.08 9.35526 10.3371 7.94904 10.3371C6.54282 10.3371 5.79992 11.08 5.25792 11.623C4.77062 12.1103 4.53194 12.3261 3.97402 12.3261C3.41611 12.3261 3.17743 12.1103 2.69012 11.623C2.14812 11.08 1.40523 10.3371 0 10.3371V12.3261C0.557914 12.3261 0.796594 12.5419 1.2839 13.0292C1.8259 13.5722 2.56879 14.3151 3.97402 14.3151Z" fill="#0096D6"/>
</svg>
