<svg width="12" height="12" viewBox="0 0 12 12" fill="none" xmlns="http://www.w3.org/2000/svg">
<path d="M11.8175 4.78301C11.7864 4.68747 11.7292 4.60255 11.6523 4.53787C11.5754 4.47318 11.482 4.43131 11.3825 4.41701L7.94354 3.91701L6.40154 0.800013C6.35712 0.709962 6.28839 0.634138 6.20312 0.581119C6.11785 0.528099 6.01944 0.5 5.91904 0.5C5.81863 0.5 5.72022 0.528099 5.63495 0.581119C5.54968 0.634138 5.48095 0.709962 5.43654 0.800013L3.90154 3.91701L0.462536 4.41701C0.362972 4.43112 0.269354 4.47284 0.192302 4.53746C0.115251 4.60207 0.0578511 4.68699 0.0266146 4.78257C-0.00462196 4.87816 -0.00844468 4.98058 0.0155801 5.07823C0.0396049 5.17588 0.0905154 5.26483 0.162536 5.33501L2.65454 7.76401L2.06654 11.189C2.04932 11.2881 2.06021 11.39 2.09797 11.4832C2.13573 11.5763 2.19884 11.6571 2.28016 11.7162C2.36147 11.7754 2.45773 11.8105 2.55801 11.8177C2.6583 11.8249 2.7586 11.8039 2.84754 11.757L5.92354 10.14L9.00154 11.753C9.07932 11.7937 9.16577 11.8149 9.25354 11.815C9.33439 11.8148 9.41416 11.7964 9.48694 11.7612C9.55971 11.7259 9.62363 11.6748 9.67395 11.6115C9.72427 11.5482 9.75971 11.4744 9.77764 11.3955C9.79557 11.3167 9.79554 11.2348 9.77754 11.156L9.19454 7.75601L11.6815 5.33401C11.7533 5.26397 11.8041 5.17527 11.8281 5.0779C11.8521 4.98054 11.8485 4.8784 11.8175 4.78301Z" fill="#262626"/>
</svg>
