<svg width="13" height="12" viewBox="0 0 13 12" fill="none" xmlns="http://www.w3.org/2000/svg">
<path d="M12.159 4.28298C12.1279 4.18744 12.0706 4.10252 11.9938 4.03784C11.9169 3.97315 11.8234 3.93128 11.724 3.91698L8.28497 3.41698L6.74297 0.299983C6.69855 0.209932 6.62982 0.134108 6.54455 0.0810881C6.45928 0.0280685 6.36088 -3.05176e-05 6.26047 -3.05176e-05C6.16006 -3.05176e-05 6.06165 0.0280685 5.97638 0.0810881C5.89111 0.134108 5.82238 0.209932 5.77797 0.299983L4.24297 3.41698L0.803967 3.91698C0.704402 3.93109 0.610784 3.97281 0.533733 4.03743C0.456682 4.10204 0.399282 4.18696 0.368045 4.28254C0.336809 4.37813 0.332986 4.48055 0.357011 4.5782C0.381036 4.67585 0.431946 4.7648 0.503967 4.83498L2.99597 7.26398L2.40797 10.689C2.39075 10.788 2.40164 10.8899 2.4394 10.9831C2.47716 11.0763 2.54027 11.1571 2.62159 11.2162C2.7029 11.2753 2.79916 11.3105 2.89944 11.3177C2.99973 11.3249 3.10003 11.3039 3.18897 11.257L6.26497 9.63998L9.34297 11.253C9.42075 11.2936 9.5072 11.3149 9.59497 11.315C9.67582 11.3148 9.75559 11.2964 9.82837 11.2611C9.90114 11.2259 9.96506 11.1747 10.0154 11.1114C10.0657 11.0482 10.1011 10.9744 10.1191 10.8955C10.137 10.8167 10.137 10.7348 10.119 10.656L9.53597 7.25598L12.023 4.83398C12.0947 4.76394 12.1455 4.67523 12.1695 4.57787C12.1936 4.48051 12.1899 4.37837 12.159 4.28298Z" fill="#FFB700"/>
</svg>
