<svg width="15" height="20" viewBox="0 0 15 20" fill="none" xmlns="http://www.w3.org/2000/svg">
<path d="M8.5 3L9.25 1.5H12.5V0H2.5V1.5H7.25L6.5 3C3.37 3.09 0.5 3.73 0.5 6.5V15C0.502193 15.7154 0.76062 16.4063 1.22843 16.9475C1.69625 17.4887 2.34249 17.8443 3.05 17.95L1.5 19.5V20H3.5L5.5 18H9.5L11.5 20H13.5V19.5L11.95 17.95C12.6575 17.8443 13.3038 17.4887 13.7716 16.9475C14.2394 16.4063 14.4978 15.7154 14.5 15V6.5C14.5 3.73 11.63 3.09 8.5 3ZM7.5 16.5C7.20333 16.5 6.91332 16.412 6.66664 16.2472C6.41997 16.0824 6.22771 15.8481 6.11418 15.574C6.00065 15.2999 5.97094 14.9983 6.02882 14.7074C6.0867 14.4164 6.22956 14.1491 6.43934 13.9393C6.64912 13.7296 6.91639 13.5867 7.20736 13.5288C7.49834 13.4709 7.79994 13.5006 8.07403 13.6142C8.34811 13.7277 8.58238 13.92 8.7472 14.1666C8.91203 14.4133 9 14.7033 9 15C9 15.3978 8.84196 15.7794 8.56066 16.0607C8.27936 16.342 7.89782 16.5 7.5 16.5ZM12.5 12H2.5V7H12.5V12Z" fill="#0096D6"/>
</svg>
