<svg width="22" height="17" viewBox="0 0 22 17" fill="none" xmlns="http://www.w3.org/2000/svg">
<path d="M12.4 15.406C12.7447 15.0492 12.9445 14.577 12.9606 14.0811C12.9766 13.5852 12.8078 13.1011 12.4869 12.7227C12.166 12.3443 11.7159 12.0988 11.2241 12.0336C10.7322 11.9685 10.2337 12.0886 9.82543 12.3704C9.41712 12.6523 9.12816 13.0758 9.01465 13.5588C8.90114 14.0418 8.9712 14.5497 9.21121 14.9839C9.45122 15.4181 9.84406 15.7476 10.3134 15.9084C10.7828 16.0692 11.2951 16.0498 11.751 15.854C11.9949 15.7492 12.2155 15.5969 12.4 15.406ZM19.471 7.50598C19.2083 7.50647 18.9481 7.45494 18.7054 7.35437C18.4627 7.25379 18.2423 7.10616 18.057 6.91998C16.1799 5.04753 13.6368 3.99599 10.9855 3.99599C8.33416 3.99599 5.79106 5.04753 3.91398 6.91998C3.73066 7.11547 3.50993 7.27212 3.26489 7.38063C3.01985 7.48914 2.75551 7.5473 2.48755 7.55165C2.2196 7.556 1.9535 7.50646 1.70507 7.40596C1.45663 7.30546 1.23093 7.15606 1.04136 6.96663C0.8518 6.7772 0.702239 6.5516 0.601565 6.30324C0.500891 6.05488 0.451158 5.78882 0.455319 5.52086C0.459481 5.2529 0.517452 4.98851 0.62579 4.74339C0.734128 4.49828 0.890623 4.27743 1.08598 4.09398C3.71373 1.47232 7.27408 0 10.986 0C14.6979 0 18.2582 1.47232 20.886 4.09398C21.1659 4.37357 21.3566 4.7299 21.4339 5.11788C21.5113 5.50586 21.4719 5.90807 21.3206 6.27364C21.1693 6.6392 20.9131 6.9517 20.5842 7.17159C20.2553 7.39148 19.8686 7.5089 19.473 7.50898L19.471 7.50598ZM6.74398 11.75C6.34868 11.7497 5.96234 11.6323 5.63373 11.4126C5.30513 11.1928 5.049 10.8807 4.8977 10.5155C4.7464 10.1503 4.70671 9.74845 4.78365 9.36071C4.86059 8.97298 5.0507 8.61674 5.32998 8.33698C6.83141 6.83911 8.86565 5.99791 10.9865 5.99791C13.1073 5.99791 15.1415 6.83911 16.643 8.33698C17.0181 8.71213 17.2289 9.22094 17.2289 9.75148C17.2289 10.282 17.0181 10.7908 16.643 11.166C16.2678 11.5411 15.759 11.7519 15.2285 11.7519C14.6979 11.7519 14.1891 11.5411 13.814 11.166C13.4425 10.7945 13.0016 10.4999 12.5163 10.2988C12.0309 10.0978 11.5108 9.99434 10.9855 9.99434C10.4602 9.99434 9.94001 10.0978 9.4547 10.2988C8.96938 10.4999 8.52842 10.7945 8.15698 11.166C7.97167 11.3519 7.75142 11.4992 7.50892 11.5996C7.26641 11.7 7.00644 11.7515 6.74398 11.751V11.75Z" fill="#0096D6"/>
</svg>
